<?xml version="1.0" encoding="UTF-8" standalone="no"?>
<!DOCTYPE svg PUBLIC "-//W3C//DTD SVG 1.1//EN"
 "http://www.w3.org/Graphics/SVG/1.1/DTD/svg11.dtd">
<!-- Generated by graphviz version 14.0.4 (20251115.1723)
 -->
<!-- Pages: 1 -->
<svg width="820pt" height="243pt"
 viewBox="0.00 0.00 820.00 243.00" xmlns="http://www.w3.org/2000/svg" xmlns:xlink="http://www.w3.org/1999/xlink">
<g id="graph0" class="graph" transform="scale(1 1) rotate(0) translate(4 238.5)">
<polygon fill="white" stroke="none" points="-4,4 -4,-238.5 816.25,-238.5 816.25,4 -4,4"/>
<!-- n0 -->
<g id="node1" class="node">
<title>n0</title>
<polygon fill="none" stroke="black" points="246.62,-185 246.62,-234 303.88,-234 303.88,-185 246.62,-185"/>
<text xml:space="preserve" text-anchor="middle" x="275.25" y="-216.7" font-family="Courier,monospace" font-size="14.00">INode</text>
<polyline fill="none" stroke="black" points="246.62,-209.5 303.88,-209.5"/>
<text xml:space="preserve" text-anchor="middle" x="275.25" y="-192.2" font-family="Courier,monospace" font-size="14.00">25</text>
</g>
<!-- n1 -->
<g id="node2" class="node">
<title>n1</title>
<polygon fill="none" stroke="black" points="163.62,-85.75 163.62,-134.75 220.88,-134.75 220.88,-85.75 163.62,-85.75"/>
<text xml:space="preserve" text-anchor="middle" x="192.25" y="-117.45" font-family="Courier,monospace" font-size="14.00">INode</text>
<polyline fill="none" stroke="black" points="163.62,-110.25 220.88,-110.25"/>
<text xml:space="preserve" text-anchor="middle" x="192.25" y="-92.95" font-family="Courier,monospace" font-size="14.00">15</text>
</g>
<!-- n0&#45;&gt;n1 -->
<g id="edge3" class="edge">
<title>n0&#45;&gt;n1</title>
<path fill="none" stroke="black" d="M255.16,-184.96C244.53,-172.51 231.33,-157.04 219.76,-143.49"/>
<polygon fill="black" stroke="black" points="222.58,-141.4 213.43,-136.06 217.26,-145.94 222.58,-141.4"/>
</g>
<!-- n4 -->
<g id="node5" class="node">
<title>n4</title>
<polygon fill="none" stroke="black" points="384.62,-73.5 384.62,-147 441.88,-147 441.88,-73.5 384.62,-73.5"/>
<text xml:space="preserve" text-anchor="middle" x="413.25" y="-129.7" font-family="Courier,monospace" font-size="14.00">INode</text>
<polyline fill="none" stroke="black" points="384.62,-122.5 441.88,-122.5"/>
<text xml:space="preserve" text-anchor="middle" x="413.25" y="-105.2" font-family="Courier,monospace" font-size="14.00">35</text>
<polyline fill="none" stroke="black" points="384.62,-98 441.88,-98"/>
<text xml:space="preserve" text-anchor="middle" x="413.25" y="-80.7" font-family="Courier,monospace" font-size="14.00">45</text>
</g>
<!-- n0&#45;&gt;n4 -->
<g id="edge7" class="edge">
<title>n0&#45;&gt;n4</title>
<path fill="none" stroke="black" d="M304.18,-188.11C324.79,-173.59 352.69,-153.92 375.12,-138.12"/>
<polygon fill="black" stroke="black" points="376.96,-141.1 383.12,-132.48 372.93,-135.38 376.96,-141.1"/>
</g>
<!-- n2 -->
<g id="node3" class="node">
<title>n2</title>
<polygon fill="none" stroke="blue" points="98.5,-36 0,-36 0,0 98.5,0 98.5,-36"/>
<text xml:space="preserve" text-anchor="middle" x="49.25" y="-12.95" font-family="Courier,monospace" font-size="14.00">{Leaf | 5}</text>
</g>
<!-- n1&#45;&gt;n2 -->
<g id="edge1" class="edge">
<title>n1&#45;&gt;n2</title>
<path fill="none" stroke="black" d="M163.31,-90.99C141.08,-76.95 110.21,-57.47 86.19,-42.31"/>
<polygon fill="black" stroke="black" points="88.29,-39.5 77.97,-37.13 84.56,-45.42 88.29,-39.5"/>
</g>
<!-- n3 -->
<g id="node4" class="node">
<title>n3</title>
<polygon fill="none" stroke="blue" points="245.62,-36 138.88,-36 138.88,0 245.62,0 245.62,-36"/>
<text xml:space="preserve" text-anchor="middle" x="192.25" y="-12.95" font-family="Courier,monospace" font-size="14.00">{Leaf | 15}</text>
</g>
<!-- n1&#45;&gt;n3 -->
<g id="edge2" class="edge">
<title>n1&#45;&gt;n3</title>
<path fill="none" stroke="black" d="M192.25,-85.54C192.25,-73.94 192.25,-59.89 192.25,-47.7"/>
<polygon fill="black" stroke="black" points="195.75,-47.79 192.25,-37.79 188.75,-47.79 195.75,-47.79"/>
</g>
<!-- n2&#45;&gt;n3 -->
<g id="edge8" class="edge">
<title>n2&#45;&gt;n3</title>
<path fill="none" stroke="gray" stroke-dasharray="5,2" d="M98.86,-18C108.14,-18 117.96,-18 127.61,-18"/>
<polygon fill="gray" stroke="gray" points="127.31,-21.5 137.31,-18 127.31,-14.5 127.31,-21.5"/>
<text xml:space="preserve" text-anchor="middle" x="118.69" y="-24.2" font-family="Times New Roman,serif" font-size="14.00">next</text>
</g>
<!-- n5 -->
<g id="node6" class="node">
<title>n5</title>
<polygon fill="none" stroke="blue" points="434.25,-36 286.25,-36 286.25,0 434.25,0 434.25,-36"/>
<text xml:space="preserve" text-anchor="middle" x="360.25" y="-12.95" font-family="Courier,monospace" font-size="14.00">{Leaf | 25 | 30}</text>
</g>
<!-- n3&#45;&gt;n5 -->
<g id="edge9" class="edge">
<title>n3&#45;&gt;n5</title>
<path fill="none" stroke="gray" stroke-dasharray="5,2" d="M245.87,-18C255.05,-18 264.79,-18 274.56,-18"/>
<polygon fill="gray" stroke="gray" points="274.49,-21.5 284.49,-18 274.49,-14.5 274.49,-21.5"/>
<text xml:space="preserve" text-anchor="middle" x="265.94" y="-24.2" font-family="Times New Roman,serif" font-size="14.00">next</text>
</g>
<!-- n4&#45;&gt;n5 -->
<g id="edge4" class="edge">
<title>n4&#45;&gt;n5</title>
<path fill="none" stroke="black" d="M392,-73.06C386.67,-64 381.06,-54.43 376.05,-45.91"/>
<polygon fill="black" stroke="black" points="379.16,-44.29 371.08,-37.44 373.12,-47.83 379.16,-44.29"/>
</g>
<!-- n6 -->
<g id="node7" class="node">
<title>n6</title>
<polygon fill="none" stroke="blue" points="623.25,-36 475.25,-36 475.25,0 623.25,0 623.25,-36"/>
<text xml:space="preserve" text-anchor="middle" x="549.25" y="-12.95" font-family="Courier,monospace" font-size="14.00">{Leaf | 35 | 40}</text>
</g>
<!-- n4&#45;&gt;n6 -->
<g id="edge5" class="edge">
<title>n4&#45;&gt;n6</title>
<path fill="none" stroke="black" d="M442.09,-90.11C463.01,-76.23 491.43,-57.37 513.75,-42.56"/>
<polygon fill="black" stroke="black" points="515.55,-45.56 521.95,-37.12 511.68,-39.73 515.55,-45.56"/>
</g>
<!-- n7 -->
<g id="node8" class="node">
<title>n7</title>
<polygon fill="none" stroke="blue" points="812.25,-36 664.25,-36 664.25,0 812.25,0 812.25,-36"/>
<text xml:space="preserve" text-anchor="middle" x="738.25" y="-12.95" font-family="Courier,monospace" font-size="14.00">{Leaf | 45 | 55}</text>
</g>
<!-- n4&#45;&gt;n7 -->
<g id="edge6" class="edge">
<title>n4&#45;&gt;n7</title>
<path fill="none" stroke="black" d="M442.09,-101.24C491.57,-87.5 594.07,-59.04 664.5,-39.48"/>
<polygon fill="black" stroke="black" points="665.36,-42.87 674.05,-36.83 663.48,-36.13 665.36,-42.87"/>
</g>
<!-- n5&#45;&gt;n6 -->
<g id="edge10" class="edge">
<title>n5&#45;&gt;n6</title>
<path fill="none" stroke="gray" stroke-dasharray="5,2" d="M434.68,-18C444.18,-18 453.97,-18 463.63,-18"/>
<polygon fill="gray" stroke="gray" points="463.38,-21.5 473.38,-18 463.38,-14.5 463.38,-21.5"/>
<text xml:space="preserve" text-anchor="middle" x="454.75" y="-24.2" font-family="Times New Roman,serif" font-size="14.00">next</text>
</g>
<!-- n6&#45;&gt;n7 -->
<g id="edge11" class="edge">
<title>n6&#45;&gt;n7</title>
<path fill="none" stroke="gray" stroke-dasharray="5,2" d="M623.68,-18C633.18,-18 642.97,-18 652.63,-18"/>
<polygon fill="gray" stroke="gray" points="652.38,-21.5 662.38,-18 652.38,-14.5 652.38,-21.5"/>
<text xml:space="preserve" text-anchor="middle" x="643.75" y="-24.2" font-family="Times New Roman,serif" font-size="14.00">next</text>
</g>
</g>
</svg>
